<?xml version="1.0" encoding="UTF-8" standalone="no"?>
<!-- Created with Inkscape (http://www.inkscape.org/) -->

<svg
   width="210mm"
   height="297mm"
   viewBox="0 0 210 297"
   version="1.1"
   id="svg1"
   inkscape:version="1.4 (86a8ad7, 2024-10-11)"
   sodipodi:docname="catalyst_cauldron_icon.svg"
   xmlns:inkscape="http://www.inkscape.org/namespaces/inkscape"
   xmlns:sodipodi="http://sodipodi.sourceforge.net/DTD/sodipodi-0.dtd"
   xmlns:xlink="http://www.w3.org/1999/xlink"
   xmlns="http://www.w3.org/2000/svg"
   xmlns:svg="http://www.w3.org/2000/svg">
  <sodipodi:namedview
     id="namedview1"
     pagecolor="#505050"
     bordercolor="#eeeeee"
     borderopacity="1"
     inkscape:showpageshadow="0"
     inkscape:pageopacity="0"
     inkscape:pagecheckerboard="0"
     inkscape:deskcolor="#d1d1d1"
     inkscape:document-units="mm"
     inkscape:zoom="1.4142136"
     inkscape:cx="319.96582"
     inkscape:cy="306.53079"
     inkscape:window-width="2560"
     inkscape:window-height="1017"
     inkscape:window-x="1912"
     inkscape:window-y="-8"
     inkscape:window-maximized="1"
     inkscape:current-layer="g6"
     showgrid="false" />
  <defs
     id="defs1">
    <filter
       inkscape:collect="always"
       style="color-interpolation-filters:sRGB"
       id="filter1354"
       x="-0.62775044"
       y="-0.01168632"
       width="2.2555009"
       height="1.0233726">
      <feGaussianBlur
         inkscape:collect="always"
         stdDeviation="21.515 0"
         id="feGaussianBlur1354" />
    </filter>
    <filter
       inkscape:collect="always"
       style="color-interpolation-filters:sRGB"
       id="filter3587"
       x="-2.5605335"
       y="0"
       width="6.1210669"
       height="1">
      <feGaussianBlur
         inkscape:collect="always"
         stdDeviation="70.796 0"
         id="feGaussianBlur3587" />
    </filter>
    <filter
       inkscape:collect="always"
       style="color-interpolation-filters:sRGB"
       id="filter3661"
       x="-0.12742408"
       y="0"
       width="1.2548482"
       height="1">
      <feGaussianBlur
         inkscape:collect="always"
         stdDeviation="4.425 0"
         id="feGaussianBlur3661" />
    </filter>
    <filter
       inkscape:collect="always"
       style="color-interpolation-filters:sRGB"
       id="filter28"
       x="-3.8665044"
       y="-3.8665044"
       width="8.7330087"
       height="8.7330087">
      <feGaussianBlur
         inkscape:collect="always"
         stdDeviation="2.2605598"
         id="feGaussianBlur28" />
    </filter>
    <filter
       inkscape:collect="always"
       style="color-interpolation-filters:sRGB"
       id="filter61"
       x="-0.11568219"
       y="-0.17831018"
       width="1.2313644"
       height="1.3566204">
      <feGaussianBlur
         inkscape:collect="always"
         stdDeviation="1.7486349"
         id="feGaussianBlur61" />
    </filter>
  </defs>
  <g
     inkscape:label="Layer 1"
     inkscape:groupmode="layer"
     id="layer1">
    <g
       id="g3589"
       transform="matrix(0.55820087,0,0,0.55820087,46.045927,37.190754)"
       style="fill:#6600f7;fill-opacity:1">
      <path
         style="mix-blend-mode:normal;fill:#6600f7;stroke-linecap:square;stroke-miterlimit:1.84;paint-order:stroke fill markers;filter:url(#filter3587);fill-opacity:1"
         d="m 100.04297,-47.351562 h 66.35742 v 66.357421 h -66.35742 z"
         transform="rotate(45,-1.4171121e-6,2.3333333e-7)"
         id="path3588" />
      <path
         style="fill:#6600f7;stroke-linecap:square;stroke-miterlimit:1.84;paint-order:stroke fill markers;filter:url(#filter3587);fill-opacity:1"
         d="M 82.583984,-64.810547 V 36.464844 H 183.85937 V -64.810547 Z"
         transform="rotate(45,-1.4171121e-6,2.3333333e-7)"
         id="rect3587" />
    </g>
    <rect
       style="fill:#000000;fill-opacity:1;stroke-width:1.959;stroke-linecap:square;stroke-miterlimit:1.84;paint-order:stroke fill markers"
       id="rect1"
       width="83.815948"
       height="83.815948"
       x="91.862747"
       y="-56.629677"
       transform="rotate(45)" />
    <rect
       style="fill:none;fill-opacity:1;stroke:#6600f7;stroke-width:1.959;stroke-linecap:square;stroke-miterlimit:1.84;stroke-opacity:1;paint-order:stroke fill markers;filter:url(#filter1354)"
       id="rect1354"
       width="83.815948"
       height="83.815948"
       x="91.313553"
       y="-56.080482"
       transform="rotate(45)" />
    <rect
       style="fill:none;fill-opacity:1;stroke:#6c00f7;stroke-width:1.959;stroke-linecap:square;stroke-miterlimit:1.84;stroke-opacity:1;paint-order:stroke fill markers"
       id="rect1353"
       width="83.815948"
       height="83.815948"
       x="91.313553"
       y="-56.080482"
       transform="rotate(45)"
       inkscape:export-filename="pulse_icon.png"
       inkscape:export-xdpi="96"
       inkscape:export-ydpi="96" />
    <g
       id="g30"
       transform="translate(4.7625,10.054167)">
      <circle
         style="fill:#0c00cc;fill-opacity:1;stroke:none;stroke-width:2.565;stroke-opacity:1;paint-order:stroke fill markers;filter:url(#filter28)"
         id="circle21"
         cx="116.32237"
         cy="38.119316"
         r="1.0757599" />
      <circle
         style="fill:#0c00cc;fill-opacity:1;stroke:none;stroke-width:2.565;stroke-opacity:1;paint-order:stroke fill markers;filter:url(#filter28)"
         id="circle23"
         cx="113.46928"
         cy="41.90786"
         r="0.70158249" />
      <circle
         style="fill:#0c00cc;fill-opacity:1;stroke:none;stroke-width:2.565;stroke-opacity:1;paint-order:stroke fill markers;filter:url(#filter28)"
         id="circle24"
         cx="120.43834"
         cy="34.096909"
         r="0.93544334" />
      <circle
         style="fill:#0c00cc;fill-opacity:1;stroke:none;stroke-width:2.565;stroke-opacity:1;paint-order:stroke fill markers;filter:url(#filter28)"
         id="circle25"
         cx="126.75258"
         cy="49.578491"
         r="0.84189904" />
      <circle
         style="fill:#0c00cc;fill-opacity:1;stroke:none;stroke-width:2.565;stroke-opacity:1;paint-order:stroke fill markers;filter:url(#filter28)"
         id="circle26"
         cx="115.05953"
         cy="54.396027"
         r="0.98221546" />
      <circle
         style="fill:#0c00cc;fill-opacity:1;stroke:none;stroke-width:2.565;stroke-opacity:1;paint-order:stroke fill markers;filter:url(#filter28)"
         id="circle27"
         cx="103.03909"
         cy="48.128555"
         r="0.70158249" />
      <circle
         style="fill:#0c00cc;fill-opacity:1;stroke:none;stroke-width:2.565;stroke-opacity:1;paint-order:stroke fill markers;filter:url(#filter28)"
         id="circle28"
         cx="133.30067"
         cy="46.07058"
         r="1.4967093" />
      <path
         id="path46"
         style="fill:#00f7c5;fill-opacity:0.47503567;stroke:none;stroke-width:2.565;paint-order:stroke fill markers;filter:url(#filter61)"
         d="m 116.60547,30.316406 c -1.66259,-0.0063 -2.67403,2.274414 -1.50748,3.481675 0.94597,1.298565 3.25111,0.840229 3.65787,-0.71019 0.47754,-1.344789 -0.71379,-2.923382 -2.15039,-2.771485 z m 21.97265,1.279297 c -1.57958,0.39662 -2.7068,1.618898 -4.00327,2.468902 -2.0778,1.496586 -4.02046,3.279645 -6.38344,4.310395 -1.04541,-0.0059 -1.99563,-0.562432 -2.99104,-0.832676 -1.4688,-0.521834 -3.22348,-1.217222 -4.70781,-0.388644 -1.55186,0.966343 -1.65656,3.535319 -0.098,4.553351 0.2824,0.873595 -0.25629,1.773363 -0.24725,2.672333 -0.13507,1.368379 0.6975,2.643306 1.88202,3.27298 1.87444,1.116388 4.41442,1.410992 6.3454,0.279245 1.45355,-0.860461 2.28939,-2.579949 3.93369,-3.124102 2.5084,-0.255107 4.83752,1.229288 7.34005,1.010872 1.19246,-0.109832 1.87626,-1.481263 1.38476,-2.535156 -0.71146,-1.685463 -2.69716,-2.085457 -4.19215,-2.792732 -0.62421,-0.241132 -0.791,-0.507818 0.0183,-0.449455 1.69335,-0.102674 3.64592,0.17964 5.0664,-0.955078 1.00815,-0.982168 0.47497,-2.979783 -0.97254,-3.166767 -1.01783,-0.257276 -2.07976,-0.126819 -3.10363,0.02224 0.73004,-0.992475 1.76175,-1.872061 2.10156,-3.085937 0.0825,-0.74497 -0.6302,-1.427625 -1.37305,-1.259766 z m -27.40624,2.570313 c -1.96745,-0.0049 -3.30472,2.531994 -2.13242,4.137205 0.97309,1.723813 3.86175,1.59454 4.66041,-0.2312 0.9568,-1.739789 -0.53802,-4.079525 -2.52799,-3.906005 z m -0.99024,7.179687 c -1.72323,0.132007 -2.59695,1.886981 -3.0332,3.349609 -0.41229,1.709696 -1.20876,3.443829 -0.92004,5.233472 0.3465,1.41635 1.85399,2.17473 3.22685,2.145425 0.94735,0.158252 2.16417,-0.317497 2.2014,-1.413925 0.0695,-0.483035 -0.0806,-0.957424 -0.18399,-1.423956 0.69016,0.804504 1.16488,2.13167 2.42968,2.117188 1.54857,-0.01589 2.65292,-1.308037 3.69436,-2.290666 1.247,-1.372356 2.33375,-3.080188 2.44822,-4.973006 0.0393,-1.600783 -1.58971,-3.144227 -3.19922,-2.558594 -0.99574,0.257078 -1.66392,1.298156 -2.68172,1.397046 -1.34186,-0.48209 -2.4695,-1.650801 -3.98234,-1.582593 z m 22.2207,7.419922 c -1.73684,0.03685 -2.97331,2.132268 -2.1325,3.664371 0.69836,1.574202 3.08705,1.927643 4.17833,0.5744 1.09117,-1.161286 0.73313,-3.270492 -0.72707,-3.949508 -0.40252,-0.211909 -0.86534,-0.308564 -1.31876,-0.289263 z" />
      <path
         style="fill:#00f75e;fill-opacity:1;stroke:none;stroke-width:2.565;paint-order:stroke fill markers"
         d="m 111.56312,42.776034 c -2.74931,-1.568944 -3.37702,2.038284 -4.17829,5.100684 -0.60069,2.295785 0.2854,3.198406 2.65775,3.140147 1.53536,-0.0377 -0.67088,-2.768248 0.85244,-2.963837 2.22206,-0.285304 1.81229,3.109238 3.78694,2.051091 2.60679,-1.396888 6.00377,-6.359723 3.29812,-7.553921 -1.26034,-0.556277 -2.71551,1.881747 -4.0169,1.429758 -0.80882,-0.280915 -1.65641,-0.779548 -2.40006,-1.203922 z"
         id="path6"
         sodipodi:nodetypes="ssssssss" />
      <path
         style="fill:#00f75e;fill-opacity:1;stroke:none;stroke-width:2.565;paint-order:stroke fill markers"
         d="m 128.01541,39.475708 c -2.49948,-0.296997 -6.7144,-3.082741 -7.53031,-0.701581 -0.65475,1.910822 0.8548,1.82533 1.02898,2.806329 0.2453,1.381557 -0.81571,3.067789 0,4.209494 1.0347,1.448219 3.28947,1.982686 5.0514,1.730571 2.11529,-0.302679 3.33747,-3.087886 5.23849,-3.695001 2.58799,-0.826508 8.87561,2.603601 8.27866,-0.04677 -0.39312,-1.745407 -4.82982,-2.011578 -5.28525,-3.741774 -0.52999,-2.013462 6.38523,-0.126825 6.59487,-2.198291 0.16745,-1.654574 -3.25544,-0.811515 -4.91107,-0.654812 -2.07621,0.19651 3.98091,-5.175326 2.0112,-4.490127 -1.62225,0.564327 -8.77137,6.984629 -10.47697,6.781964 z"
         id="path7"
         sodipodi:nodetypes="ssaaasssssss" />
      <circle
         style="fill:#00f75e;fill-opacity:1;stroke:none;stroke-width:2.565;paint-order:stroke fill markers"
         id="path8"
         cx="116.72314"
         cy="32.441315"
         r="1.0757599" />
      <circle
         style="fill:#00f75e;fill-opacity:1;stroke:none;stroke-width:2.565;paint-order:stroke fill markers"
         id="path9"
         cx="111.29391"
         cy="36.854519"
         r="1.6370258" />
      <circle
         style="fill:#00f75e;fill-opacity:1;stroke:none;stroke-width:2.565;paint-order:stroke fill markers"
         id="path15"
         cx="132.55232"
         cy="51.309063"
         r="1.4967093" />
      <g
         id="g61">
        <g
           id="g6"
           transform="rotate(30,84.395887,75.036788)"
           style="fill:#6c00f7;fill-opacity:1;stroke:none">
          <g
             id="g5"
             transform="translate(0.4509835)"
             style="fill:#6c00f7;fill-opacity:1;stroke:none">
            <path
               id="path1"
               style="fill:#6c00f7;fill-opacity:1;stroke:none;stroke-width:2.565;paint-order:stroke fill markers"
               d="m 114.82916,65.352081 c 1.27265,10.885255 -8.88435,19.843748 -19.843747,19.84375 -10.959401,0 -20.936321,-8.938946 -19.84375,-19.84375 1.782756,-17.793452 10.510917,-19.076323 19.650061,-19.120895 9.232126,-0.04503 17.674376,-1.09082 20.037436,19.120895 z"
               sodipodi:nodetypes="sssas" />
            <path
               id="path3"
               style="fill:#6c00f7;fill-opacity:1;stroke:none;stroke-width:2.565;paint-order:stroke fill markers"
               d="m 83.76601,31.299702 c -4.659829,-0.638536 -8.110698,1.495324 -3.208683,2.434251 1.803075,0.345359 -5.419478,11.841228 -5.41566,31.61813 0.0013,6.768787 9.520738,10.072054 19.235518,10.135299 L 93.022746,53.860278 c 0,0 9.188914,-9.502813 1.650916,-6.851993 -14.932707,5.25125 -11.669603,-7.261086 -11.051778,-11.03461 0.350225,-2.139089 2.74645,-4.317377 0.144126,-4.673973 z"
               sodipodi:nodetypes="sssccsss" />
            <use
               x="0"
               y="0"
               xlink:href="#path3"
               id="use4"
               transform="matrix(-1,0,0,1,189.97083,-2e-6)"
               style="fill:#6c00f7;fill-opacity:1;stroke:none" />
          </g>
          <path
             style="fill:#6c00f7;fill-opacity:1;stroke:none;stroke-width:2.565;paint-order:stroke fill markers"
             d="m 76.273859,69.098491 c 0,0 -5.299108,8.981707 -4.338266,13.220521 0.548407,2.419331 1.295119,3.95953 3.754566,3.63544 4.328477,-0.570378 7.224332,-20.439206 7.224332,-20.439206 z"
             id="path4"
             sodipodi:nodetypes="csscc" />
          <path
             style="fill:#6c00f7;fill-opacity:1;stroke:none;stroke-width:2.565;paint-order:stroke fill markers"
             d="m 90.628706,65.901564 c 4.350634,8.539677 -5.371319,20.532968 1.868078,24.87935 1.927773,1.157395 3.729935,1.261478 5.599869,0.01279 5.111297,-3.41317 -1.701994,-16.59281 0.905524,-24.540151 0.625805,-1.907364 -9.284721,-2.140645 -8.373471,-0.351989 z"
             id="path5"
             sodipodi:nodetypes="sssss" />
          <use
             x="0"
             y="0"
             xlink:href="#path4"
             id="use5"
             transform="matrix(-1,0,0,1,190.87279,0)"
             style="fill:#6c00f7;fill-opacity:1;stroke:none" />
        </g>
        <path
           id="path31"
           style="fill:#6c00f7;fill-opacity:1;stroke:none;paint-order:stroke fill markers"
           d="m 86.960418,47.770835 c -2.218903,0.03771 -4.270614,1.472643 -5.146484,3.498047 -1.285521,2.741869 -1.006361,5.886518 -0.316398,8.748088 0.75733,3.179203 1.703417,6.509582 3.613273,9.249959 0.599687,0.840423 1.718508,1.860787 2.785156,1.152344 1.695896,-1.23035 2.188922,-3.405857 3.232422,-5.121094 0.650368,-1.184908 1.299551,-2.370468 1.951172,-3.554688 -0.950375,1.182379 -2.006698,2.778039 -3.716797,2.722656 -1.897233,-0.209863 -3.079405,-1.972246 -3.944315,-3.498681 -1.111034,-2.096752 -1.927613,-4.489668 -1.513118,-6.888908 0.116553,-1.489365 1.00903,-3.102704 2.612725,-3.327993 1.705757,-0.420766 3.253101,0.619979 4.583852,1.541944 1.212781,0.860457 2.72371,1.21254 4.192496,1.015435 1.087367,0.01608 1.335411,1.323544 1.056641,2.167969 0.07399,-0.03996 0.42382,-0.86747 0.587891,-1.214844 0.470963,-1.212593 1.164281,-2.462486 1.044922,-3.794922 -0.364629,-0.229879 -0.875015,0.150938 -1.289334,0.170705 -1.731181,0.455138 -3.674796,0.175792 -5.058323,-1.014455 -1.170433,-0.9969 -2.550684,-1.928019 -4.159186,-1.860262 -0.172116,-0.0091 -0.344446,0.0073 -0.516595,0.0087 z" />
        <use
           x="0"
           y="0"
           xlink:href="#path31"
           id="use31"
           transform="matrix(-0.50000001,-0.86602541,-0.86602541,0.50000001,210.56463,120.70951)"
           style="fill:#6c00f7;fill-opacity:1;stroke:none" />
      </g>
    </g>
    <g
       id="g3661"
       transform="translate(17.86719,3.4299433)"
       inkscape:export-filename="catalyst_cauldron_icon.png"
       inkscape:export-xdpi="96"
       inkscape:export-ydpi="96">
      <rect
         style="mix-blend-mode:normal;fill:#000000;fill-opacity:1;stroke:none;stroke-width:3.63811;stroke-linecap:round;stroke-linejoin:bevel;stroke-miterlimit:1.84;stroke-dasharray:none;stroke-opacity:1;paint-order:fill markers stroke;filter:url(#filter3661)"
         id="rect3661"
         width="83.34375"
         height="17.991667"
         x="68.048515"
         y="136.07422"
         transform="matrix(1.0019107,0,0,1.1764797,-23.573905,-48.835662)" />
      <text
         xml:space="preserve"
         style="font-style:normal;font-variant:normal;font-weight:normal;font-stretch:normal;font-size:19.7556px;font-family:'Alien Planet';-inkscape-font-specification:'Alien Planet';text-align:start;letter-spacing:0.994833px;writing-mode:lr-tb;direction:ltr;text-anchor:start;fill:#a462ff;fill-opacity:1;stroke:none;stroke-width:3.2;stroke-linecap:round;stroke-linejoin:bevel;stroke-miterlimit:1.84;stroke-dasharray:none;stroke-opacity:1;paint-order:fill markers stroke"
         x="51.244034"
         y="127.38292"
         id="text3661"><tspan
           sodipodi:role="line"
           id="tspan3661"
           style="font-style:normal;font-variant:normal;font-weight:normal;font-stretch:normal;font-size:19.7556px;font-family:'Alien Planet';-inkscape-font-specification:'Alien Planet';fill:#a462ff;fill-opacity:1;stroke:none;stroke-width:3.2"
           x="51.244034"
           y="127.38292">Cauldron</tspan></text>
    </g>
    <circle
       style="fill:#0c00cc;fill-opacity:1;stroke:none;stroke-width:2.565;stroke-opacity:1;paint-order:stroke fill markers;filter:url(#filter28)"
       id="circle32"
       cx="121.08487"
       cy="48.173485"
       r="1.0757599" />
    <circle
       style="fill:#0c00cc;fill-opacity:1;stroke:none;stroke-width:2.565;stroke-opacity:1;paint-order:stroke fill markers;filter:url(#filter28)"
       id="circle33"
       cx="118.23177"
       cy="51.962029"
       r="0.70158249" />
    <circle
       style="fill:#0c00cc;fill-opacity:1;stroke:none;stroke-width:2.565;stroke-opacity:1;paint-order:stroke fill markers;filter:url(#filter28)"
       id="circle34"
       cx="125.20084"
       cy="44.151077"
       r="0.93544334" />
    <circle
       style="fill:#0c00cc;fill-opacity:1;stroke:none;stroke-width:2.565;stroke-opacity:1;paint-order:stroke fill markers;filter:url(#filter28)"
       id="circle35"
       cx="131.51508"
       cy="59.63266"
       r="0.84189904" />
    <circle
       style="fill:#0c00cc;fill-opacity:1;stroke:none;stroke-width:2.565;stroke-opacity:1;paint-order:stroke fill markers;filter:url(#filter28)"
       id="circle36"
       cx="119.82203"
       cy="64.450195"
       r="0.98221546" />
    <circle
       style="fill:#0c00cc;fill-opacity:1;stroke:none;stroke-width:2.565;stroke-opacity:1;paint-order:stroke fill markers;filter:url(#filter28)"
       id="circle37"
       cx="107.80159"
       cy="58.182724"
       r="0.70158249" />
    <circle
       style="fill:#0c00cc;fill-opacity:1;stroke:none;stroke-width:2.565;stroke-opacity:1;paint-order:stroke fill markers;filter:url(#filter28)"
       id="circle38"
       cx="138.06317"
       cy="56.124748"
       r="1.4967093" />
  </g>
</svg>
