<?xml version="1.0" encoding="UTF-8" standalone="no"?>
<!-- Created with Inkscape (http://www.inkscape.org/) -->

<svg
   width="210mm"
   height="297mm"
   viewBox="0 0 210 297"
   version="1.1"
   id="svg1"
   inkscape:version="1.4 (86a8ad7, 2024-10-11)"
   sodipodi:docname="pulse_icon.svg"
   xmlns:inkscape="http://www.inkscape.org/namespaces/inkscape"
   xmlns:sodipodi="http://sodipodi.sourceforge.net/DTD/sodipodi-0.dtd"
   xmlns="http://www.w3.org/2000/svg"
   xmlns:svg="http://www.w3.org/2000/svg">
  <sodipodi:namedview
     id="namedview1"
     pagecolor="#505050"
     bordercolor="#eeeeee"
     borderopacity="1"
     inkscape:showpageshadow="0"
     inkscape:pageopacity="0"
     inkscape:pagecheckerboard="0"
     inkscape:deskcolor="#d1d1d1"
     inkscape:document-units="mm"
     inkscape:zoom="0.5"
     inkscape:cx="207"
     inkscape:cy="431"
     inkscape:window-width="1920"
     inkscape:window-height="1017"
     inkscape:window-x="-8"
     inkscape:window-y="-8"
     inkscape:window-maximized="1"
     inkscape:current-layer="layer1" />
  <defs
     id="defs1">
    <filter
       inkscape:collect="always"
       style="color-interpolation-filters:sRGB"
       id="filter1353"
       x="-0.090826785"
       y="-0.084929649"
       width="1.1646823"
       height="1.1698593">
      <feGaussianBlur
         inkscape:collect="always"
         stdDeviation="1.7760808"
         id="feGaussianBlur1353" />
    </filter>
    <filter
       inkscape:collect="always"
       style="color-interpolation-filters:sRGB"
       id="filter1354"
       x="-0.62775044"
       y="-0.01168632"
       width="2.2555009"
       height="1.0233726">
      <feGaussianBlur
         inkscape:collect="always"
         stdDeviation="21.515 0"
         id="feGaussianBlur1354" />
    </filter>
    <filter
       inkscape:collect="always"
       style="color-interpolation-filters:sRGB"
       id="filter3587"
       x="-2.5605335"
       y="0"
       width="6.1210669"
       height="1">
      <feGaussianBlur
         inkscape:collect="always"
         stdDeviation="70.796 0"
         id="feGaussianBlur3587" />
    </filter>
    <filter
       inkscape:collect="always"
       style="color-interpolation-filters:sRGB"
       id="filter3661"
       x="-0.12742408"
       y="0"
       width="1.2548482"
       height="1">
      <feGaussianBlur
         inkscape:collect="always"
         stdDeviation="4.425 0"
         id="feGaussianBlur3661" />
    </filter>
  </defs>
  <g
     inkscape:label="Layer 1"
     inkscape:groupmode="layer"
     id="layer1">
    <g
       id="g3589"
       transform="matrix(0.55820087,0,0,0.55820087,46.045927,37.190754)">
      <path
         style="mix-blend-mode:normal;fill:#f7009a;stroke-linecap:square;stroke-miterlimit:1.84;paint-order:stroke fill markers;filter:url(#filter3587)"
         d="m 100.04297,-47.351562 h 66.35742 v 66.357421 h -66.35742 z"
         transform="rotate(45,-1.4171121e-6,2.3333333e-7)"
         id="path3588" />
      <path
         style="fill:#f7009a;stroke-linecap:square;stroke-miterlimit:1.84;paint-order:stroke fill markers;filter:url(#filter3587)"
         d="M 82.583984,-64.810547 V 36.464844 H 183.85937 V -64.810547 Z"
         transform="rotate(45,-1.4171121e-6,2.3333333e-7)"
         id="rect3587" />
    </g>
    <rect
       style="fill:#000000;fill-opacity:1;stroke-width:1.959;stroke-linecap:square;stroke-miterlimit:1.84;paint-order:stroke fill markers"
       id="rect1"
       width="83.815948"
       height="83.815948"
       x="91.862747"
       y="-56.629677"
       transform="rotate(45)" />
    <g
       id="g1409"
       transform="translate(0.56074777,2.6150616)">
      <path
         id="text1349"
         style="-inkscape-font-specification:Amuse-Bouche;fill:#ff058d;stroke-linecap:square;stroke-miterlimit:1.84;paint-order:stroke fill markers"
         d="m 82.820268,56.470455 v 18.623153 h 1.959053 v -16.6641 h 31.747929 c 4.04021,0 7.39495,1.390662 10.26398,4.259689 2.86902,2.869027 4.25969,6.223761 4.25969,10.263973 0,4.040212 -1.39067,7.392878 -4.25969,10.261906 -2.86903,2.869027 -6.22377,4.261239 -10.26398,4.261238 H 96.599788 V 104.7011 H 84.779321 V 80.752177 H 82.820268 V 106.66016 H 98.558842 V 89.435368 h 17.968408 c 4.50363,0 8.45405,-1.641536 11.64839,-4.835881 3.19435,-3.194344 4.83433,-7.142686 4.83433,-11.646317 0,-4.503631 -1.63998,-8.45404 -4.83433,-11.648385 -3.19434,-3.194344 -7.14476,-4.83433 -11.64839,-4.83433 z" />
      <path
         style="fill:none;fill-opacity:1;stroke:#ff058d;stroke-width:1.959;stroke-linecap:round;stroke-linejoin:round;stroke-miterlimit:1.84;stroke-opacity:1;paint-order:stroke fill markers"
         d="M 130.22878,77.923175 H 97.311451 L 96.273374,67.339841 90.725435,86.783549 88.785215,77.923175 H 75.294682"
         id="path1349"
         sodipodi:nodetypes="cccccc" />
      <g
         id="g1353"
         style="mix-blend-mode:normal;filter:url(#filter1353)">
        <path
           id="path1352"
           style="-inkscape-font-specification:Amuse-Bouche;fill:#ff058d;stroke-linecap:square;stroke-miterlimit:1.84;paint-order:stroke fill markers"
           d="m 82.820268,56.470455 v 18.623153 h 1.959053 v -16.6641 h 31.747929 c 4.04021,0 7.39495,1.390662 10.26398,4.259689 2.86902,2.869027 4.25969,6.223761 4.25969,10.263973 0,4.040212 -1.39067,7.392878 -4.25969,10.261906 -2.86903,2.869027 -6.22377,4.261239 -10.26398,4.261238 H 96.599788 V 104.7011 H 84.779321 V 80.752177 H 82.820268 V 106.66016 H 98.558842 V 89.435368 h 17.968408 c 4.50363,0 8.45405,-1.641536 11.64839,-4.835881 3.19435,-3.194344 4.83433,-7.142686 4.83433,-11.646317 0,-4.503631 -1.63998,-8.45404 -4.83433,-11.648385 -3.19434,-3.194344 -7.14476,-4.83433 -11.64839,-4.83433 z" />
        <path
           style="fill:none;fill-opacity:1;stroke:#ff058d;stroke-width:1.959;stroke-linecap:round;stroke-linejoin:round;stroke-miterlimit:1.84;stroke-opacity:1;paint-order:stroke fill markers"
           d="M 130.22878,77.923175 H 97.311451 L 96.273374,67.339841 90.725435,86.783549 88.785215,77.923175 H 75.294682"
           id="path1353"
           sodipodi:nodetypes="cccccc" />
      </g>
    </g>
    <rect
       style="fill:none;fill-opacity:1;stroke:#6600f7;stroke-width:1.959;stroke-linecap:square;stroke-miterlimit:1.84;stroke-opacity:1;paint-order:stroke fill markers;filter:url(#filter1354)"
       id="rect1354"
       width="83.815948"
       height="83.815948"
       x="91.313553"
       y="-56.080482"
       transform="rotate(45)" />
    <rect
       style="fill:none;fill-opacity:1;stroke:#f7009a;stroke-width:1.959;stroke-linecap:square;stroke-miterlimit:1.84;stroke-opacity:1;paint-order:stroke fill markers"
       id="rect1353"
       width="83.815948"
       height="83.815948"
       x="91.313553"
       y="-56.080482"
       transform="rotate(45)"
       inkscape:export-filename="pulse_icon.png"
       inkscape:export-xdpi="96"
       inkscape:export-ydpi="96" />
    <g
       id="g3661"
       transform="translate(-4.720394,-22.234641)"
       inkscape:export-filename="pulse_icon.png"
       inkscape:export-xdpi="96"
       inkscape:export-ydpi="96">
      <g
         id="g1">
        <rect
           style="mix-blend-mode:normal;fill:#000000;fill-opacity:1;stroke:none;stroke-width:3.35247;stroke-linecap:round;stroke-linejoin:bevel;stroke-miterlimit:1.84;stroke-dasharray:none;stroke-opacity:1;paint-order:fill markers stroke;filter:url(#filter3661)"
           id="rect3661"
           width="83.34375"
           height="17.991667"
           x="68.048515"
           y="140.57214" />
        <text
           xml:space="preserve"
           style="font-style:normal;font-variant:normal;font-weight:normal;font-stretch:normal;font-size:19.7556px;font-family:'Abyssal Horrors';-inkscape-font-specification:'Abyssal Horrors';text-align:start;letter-spacing:0.994833px;writing-mode:lr-tb;direction:ltr;text-anchor:start;fill:#f7009a;fill-opacity:1;stroke:none;stroke-width:3.2;stroke-linecap:round;stroke-linejoin:bevel;stroke-miterlimit:1.84;stroke-dasharray:none;stroke-opacity:1;paint-order:fill markers stroke"
           x="79.274178"
           y="154.87343"
           id="text3661"><tspan
             sodipodi:role="line"
             id="tspan3661"
             style="font-style:normal;font-variant:normal;font-weight:normal;font-stretch:normal;font-size:19.7556px;font-family:'Abyssal Horrors';-inkscape-font-specification:'Abyssal Horrors';fill:#f7009a;fill-opacity:1;stroke:none;stroke-width:3.2"
             x="79.274178"
             y="154.87343">pulse</tspan></text>
      </g>
    </g>
  </g>
</svg>
