<?xml version="1.0" encoding="UTF-8" standalone="no"?>
<!-- Created with Inkscape (http://www.inkscape.org/) -->

<svg
   width="210mm"
   height="297mm"
   viewBox="0 0 210 297"
   version="1.1"
   id="svg1"
   inkscape:version="1.4 (86a8ad7, 2024-10-11)"
   sodipodi:docname="statement_lens_icon.svg"
   inkscape:export-filename="statement_lens_icon.png"
   inkscape:export-xdpi="96"
   inkscape:export-ydpi="96"
   xmlns:inkscape="http://www.inkscape.org/namespaces/inkscape"
   xmlns:sodipodi="http://sodipodi.sourceforge.net/DTD/sodipodi-0.dtd"
   xmlns="http://www.w3.org/2000/svg"
   xmlns:svg="http://www.w3.org/2000/svg">
  <sodipodi:namedview
     id="namedview1"
     pagecolor="#505050"
     bordercolor="#eeeeee"
     borderopacity="1"
     inkscape:showpageshadow="0"
     inkscape:pageopacity="0"
     inkscape:pagecheckerboard="0"
     inkscape:deskcolor="#d1d1d1"
     inkscape:document-units="mm"
     inkscape:zoom="0.35355339"
     inkscape:cx="15.556349"
     inkscape:cy="649.12402"
     inkscape:window-width="2560"
     inkscape:window-height="1017"
     inkscape:window-x="1912"
     inkscape:window-y="-8"
     inkscape:window-maximized="1"
     inkscape:current-layer="layer1" />
  <defs
     id="defs1">
    <inkscape:path-effect
       effect="lattice2"
       gridpoint0="-158.70033,7.0639095"
       gridpoint1="-108.42949,7.0639095"
       gridpoint2="-158.70033,57.334742"
       gridpoint3="-108.42949,57.334742"
       gridpoint4="-146.13262,7.0639095"
       gridpoint5="-120.9972,7.0639095"
       gridpoint6="-146.13262,57.334742"
       gridpoint7="-120.9972,57.334742"
       gridpoint8x9="-133.56491,7.0639095"
       gridpoint10x11="-133.56491,57.334742"
       gridpoint12="-158.70033,19.631618"
       gridpoint13="-108.42949,19.631618"
       gridpoint14="-158.70033,44.767034"
       gridpoint15="-108.42949,44.767034"
       gridpoint16="-146.13262,19.631618"
       gridpoint17="-120.9972,19.631618"
       gridpoint18="-146.13262,44.767034"
       gridpoint19="-120.9972,44.767034"
       gridpoint20x21="-133.56491,19.631618"
       gridpoint22x23="-133.56491,44.767034"
       gridpoint24x26="-158.70033,32.199326"
       gridpoint25x27="-108.42949,32.199326"
       gridpoint28x30="-146.13262,32.199326"
       gridpoint29x31="-120.9972,32.199326"
       gridpoint32x33x34x35="-133.56491,32.199326"
       id="path-effect58"
       is_visible="true"
       lpeversion="1"
       horizontal_mirror="false"
       vertical_mirror="false"
       perimetral="false"
       live_update="true" />
    <filter
       inkscape:collect="always"
       style="color-interpolation-filters:sRGB"
       id="filter1354"
       x="-0.62775044"
       y="-0.01168632"
       width="2.2555009"
       height="1.0233726">
      <feGaussianBlur
         inkscape:collect="always"
         stdDeviation="21.515 0"
         id="feGaussianBlur1354" />
    </filter>
    <filter
       inkscape:collect="always"
       style="color-interpolation-filters:sRGB"
       id="filter3587"
       x="-2.5605335"
       y="0"
       width="6.1210669"
       height="1">
      <feGaussianBlur
         inkscape:collect="always"
         stdDeviation="70.796 0"
         id="feGaussianBlur3587" />
    </filter>
    <filter
       inkscape:collect="always"
       style="color-interpolation-filters:sRGB"
       id="filter3661"
       x="-0.12742408"
       y="0"
       width="1.2548482"
       height="1">
      <feGaussianBlur
         inkscape:collect="always"
         stdDeviation="4.425 0"
         id="feGaussianBlur3661" />
    </filter>
    <filter
       inkscape:collect="always"
       style="color-interpolation-filters:sRGB"
       id="filter27"
       x="-1.5096737"
       y="-1.2341636"
       width="4.0193475"
       height="3.4683272">
      <feGaussianBlur
         inkscape:collect="always"
         stdDeviation="1.6364926"
         id="feGaussianBlur27" />
    </filter>
    <filter
       inkscape:collect="always"
       style="color-interpolation-filters:sRGB"
       id="filter3-9"
       x="-0.86534716"
       y="-0.86534735"
       width="2.7306943"
       height="2.7306947">
      <feGaussianBlur
         inkscape:collect="always"
         stdDeviation="1.6238311"
         id="feGaussianBlur3-2" />
    </filter>
    <filter
       inkscape:collect="always"
       style="color-interpolation-filters:sRGB"
       id="filter3"
       x="-0.86534716"
       y="-0.86534735"
       width="2.7306943"
       height="2.7306947">
      <feGaussianBlur
         inkscape:collect="always"
         stdDeviation="1.6238311"
         id="feGaussianBlur3" />
    </filter>
    <filter
       inkscape:collect="always"
       style="color-interpolation-filters:sRGB"
       id="filter3-2"
       x="-0.86534716"
       y="-0.86534735"
       width="2.7306943"
       height="2.7306947">
      <feGaussianBlur
         inkscape:collect="always"
         stdDeviation="1.6238311"
         id="feGaussianBlur3-3" />
    </filter>
  </defs>
  <g
     inkscape:label="Layer 1"
     inkscape:groupmode="layer"
     id="layer1">
    <g
       id="g3589"
       transform="matrix(0.55820087,0,0,0.55820087,46.045927,37.190754)"
       style="fill:#00bef7;fill-opacity:1">
      <path
         style="mix-blend-mode:normal;fill:#00bef7;stroke-linecap:square;stroke-miterlimit:1.84;paint-order:stroke fill markers;filter:url(#filter3587);fill-opacity:1"
         d="m 100.04297,-47.351562 h 66.35742 v 66.357421 h -66.35742 z"
         transform="rotate(45,-1.4171121e-6,2.3333333e-7)"
         id="path3588" />
      <path
         style="fill:#00bef7;stroke-linecap:square;stroke-miterlimit:1.84;paint-order:stroke fill markers;filter:url(#filter3587);fill-opacity:1"
         d="M 82.583984,-64.810547 V 36.464844 H 183.85937 V -64.810547 Z"
         transform="rotate(45,-1.4171121e-6,2.3333333e-7)"
         id="rect3587" />
    </g>
    <rect
       style="fill:#000000;fill-opacity:1;stroke-width:1.959;stroke-linecap:square;stroke-miterlimit:1.84;paint-order:stroke fill markers"
       id="rect1"
       width="83.815948"
       height="83.815948"
       x="91.862747"
       y="-56.629677"
       transform="rotate(45)" />
    <rect
       style="fill:none;fill-opacity:1;stroke:#6600f7;stroke-width:1.959;stroke-linecap:square;stroke-miterlimit:1.84;stroke-opacity:1;paint-order:stroke fill markers;filter:url(#filter1354)"
       id="rect1354"
       width="83.815948"
       height="83.815948"
       x="91.313553"
       y="-56.080482"
       transform="rotate(45)" />
    <rect
       style="fill:none;fill-opacity:1;stroke:#00bef7;stroke-width:1.959;stroke-linecap:square;stroke-miterlimit:1.84;stroke-opacity:1;paint-order:stroke fill markers"
       id="rect1353"
       width="83.815948"
       height="83.815948"
       x="91.313553"
       y="-56.080482"
       transform="rotate(45)"
       inkscape:export-filename="pulse_icon.png"
       inkscape:export-xdpi="96"
       inkscape:export-ydpi="96" />
    <g
       id="g3661"
       transform="translate(-5.4970728,5.0174434)"
       inkscape:export-filename="catalyst_icon.png"
       inkscape:export-xdpi="96"
       inkscape:export-ydpi="96">
      <rect
         style="mix-blend-mode:normal;fill:#000000;fill-opacity:1;stroke:none;stroke-width:5.38334;stroke-linecap:round;stroke-linejoin:bevel;stroke-miterlimit:1.84;stroke-dasharray:none;stroke-opacity:1;paint-order:fill markers stroke;filter:url(#filter3661)"
         id="rect3661"
         width="83.34375"
         height="17.991667"
         x="68.048515"
         y="136.07422"
         transform="matrix(0.6667071,0,0,1,36.569029,-21.166667)" />
      <text
         xml:space="preserve"
         style="font-style:normal;font-variant:normal;font-weight:normal;font-stretch:normal;font-size:16.9333px;font-family:'Angry Android';-inkscape-font-specification:'Angry Android';text-align:start;letter-spacing:0.994833px;writing-mode:lr-tb;direction:ltr;text-anchor:start;fill:#a462ff;fill-opacity:1;stroke:none;stroke-width:3.2;stroke-linecap:round;stroke-linejoin:bevel;stroke-miterlimit:1.84;stroke-dasharray:none;stroke-opacity:1;paint-order:fill markers stroke"
         x="87.966888"
         y="130.51794"
         id="text3661"><tspan
           sodipodi:role="line"
           id="tspan3661"
           style="font-style:normal;font-variant:normal;font-weight:normal;font-stretch:normal;font-size:16.9333px;font-family:'Angry Android';-inkscape-font-specification:'Angry Android';fill:#00bef7;fill-opacity:1;stroke:none;stroke-width:3.2"
           x="87.966888"
           y="130.51794">LENS</tspan></text>
    </g>
    <path
       style="fill:#0446ff;paint-order:stroke fill markers;filter:url(#filter27)"
       d="m 103.73047,112.84766 c 0.97681,0.31639 1.54284,1.52445 1.14648,2.47461 -0.60028,0.85055 -1.97735,1.03205 -2.73633,0.29492 -0.636,-0.83144 -0.33021,-2.25586 0.67774,-2.64063 0.29425,-0.0985 0.60208,-0.14134 0.91211,-0.1289 z"
       id="path95" />
    <path
       style="fill:#0446ff;paint-order:stroke fill markers;filter:url(#filter27)"
       d="m 103.33398,86.863281 c -0.80315,0.145467 -1.33327,1.034461 -1.16992,1.816407 -0.001,7.574218 -0.003,15.148432 -0.004,22.722652 -1.66312,0.66334 -2.544002,2.80685 -1.79102,4.43946 0.75864,1.33814 2.38729,2.20727 3.92188,1.87109 1.76243,-0.47593 2.88433,-2.61446 2.18164,-4.32031 -0.27708,-0.7478 -0.82145,-1.38335 -1.49219,-1.8086 -0.39674,-0.96933 -0.13577,-2.03037 -0.21673,-3.04204 0.005,-6.87271 0.009,-13.745409 0.0136,-20.618112 -0.14516,-0.638187 -0.7877,-1.121482 -1.44336,-1.060547 z"
       id="path94" />
    <path
       style="fill:#0446ff;paint-order:stroke fill markers;filter:url(#filter27)"
       d="m 117.77148,68.914062 c 1.11557,0.200029 1.74918,1.660006 1.15235,2.619141 -0.56601,0.778006 -1.87001,0.891757 -2.50977,0.146485 -0.56064,-0.852156 -0.28687,-2.187457 0.65821,-2.642579 0.2272,-0.06399 0.45981,-0.143006 0.69921,-0.123047 z"
       id="path93" />
    <path
       style="fill:#0446ff;paint-order:stroke fill markers;filter:url(#filter27)"
       d="m 117.14453,67.287109 c -1.45022,0.284022 -2.47219,1.744403 -2.46289,3.186119 0.003,1.221999 0.57628,2.457324 1.58398,3.16935 0.30514,1.474011 0.025,2.979587 0.0812,4.467788 -0.0368,1.267899 -0.0737,2.535798 -0.11047,3.803696 -2.11978,0.298644 -4.26749,0.253881 -6.39681,0.444108 -4.38956,0.276494 -8.80041,0.419072 -13.18994,0.06302 -2.346839,-0.164941 -4.701602,-0.252548 -7.053877,-0.173141 -0.985907,0.297331 -1.575025,1.405944 -1.414062,2.398437 0.01785,3.409532 0.03462,6.819078 0.06641,10.228516 -0.300194,0.691537 -1.073455,1.132516 -1.140073,1.931827 -0.299305,1.255759 0.561732,2.705312 1.860779,2.92404 1.221828,0.286063 2.640451,-0.546171 2.856927,-1.811117 0.225239,-0.901792 -0.09572,-1.928648 -0.829586,-2.509594 -0.292072,-0.525402 -0.07747,-1.140046 -0.156943,-1.704612 -0.04209,-2.937656 -0.08417,-5.875311 -0.12626,-8.812966 0.866156,-0.408905 1.836116,-0.146147 2.751467,-0.178129 6.369166,0.220547 12.748432,0.277456 19.115642,-0.03465 1.45055,-0.06188 2.90109,-0.12377 4.35164,-0.185655 1.15564,-0.305238 1.90051,-1.540548 1.7884,-2.704601 0.0735,-2.517282 0.11364,-5.035344 0.16082,-7.553212 -0.10335,-0.423432 0.23708,-0.805407 0.59766,-0.972656 1.26065,-0.981046 1.70512,-2.944953 0.82781,-4.315072 -0.68772,-1.030639 -1.90196,-1.7483 -3.1618,-1.661491 z"
       id="path92" />
    <path
       style="fill:#0446ff;paint-order:stroke fill markers;filter:url(#filter27)"
       d="m 132.31445,96.818359 c -0.0235,0.276302 0.0378,0.563622 -0.0625,0.830079 -7.57161,0.002 -15.14323,0.0039 -22.71484,0.0059 0,0.866536 0,1.733073 0,2.599613 7.79557,-0.005 15.59115,-0.0104 23.38672,-0.0156 1.17723,-0.15214 2.06158,-1.366572 1.91797,-2.531249 0.10663,-10.683945 0.0427,-21.368504 0.0723,-32.052734 -0.86653,0 -1.73307,0 -2.59961,0 0,10.388021 0,20.776042 0,31.164062 z"
       id="path91" />
    <path
       style="fill:#0446ff;paint-order:stroke fill markers;filter:url(#filter27)"
       d="m 86.036293,88.815286 c -0.984978,0.214972 -1.575873,1.271501 -1.527311,2.231971 -0.02003,13.245093 -0.03491,5.323524 -0.04479,18.568633 h 2.59961 c 6.51e-4,-13.143884 0.0013,-5.1211 0.002,-18.264978 z"
       id="path90"
       sodipodi:nodetypes="cccccc" />
    <path
       style="fill:#0446ff;paint-order:stroke fill markers;filter:url(#filter27)"
       d="m 103.33984,48.369141 c 1.06959,0.184337 1.72832,1.537723 1.20899,2.492187 -0.63946,0.846264 -2.0641,0.935883 -2.77539,0.134766 -0.62495,-0.891432 -0.0984,-2.360986 0.99414,-2.56836 0.1882,-0.03864 0.37951,-0.0694 0.57226,-0.05859 z"
       id="path89" />
    <path
       style="fill:#0446ff;paint-order:stroke fill markers;filter:url(#filter27)"
       d="m 102.67969,46.738281 c -1.81589,0.225641 -3.229276,2.180775 -2.789065,3.97461 0.270485,0.952768 0.954025,1.767677 1.822265,2.236328 0.2423,2.033043 -0.0136,4.077047 -0.15643,6.10713 -0.24153,2.303533 -0.8786,4.539671 -1.2714,6.817076 -0.430171,3.119515 -0.508946,6.337061 0.25742,9.412474 0.353,1.542543 0.74044,3.07888 1.08528,4.622119 0.35596,0.89006 1.53382,1.216376 2.36893,0.836601 0.53728,-0.246073 0.87515,-0.793896 0.96199,-1.365995 0.16187,-0.780425 0.32103,-1.561162 0.5122,-2.335126 0.56225,-2.457403 1.06011,-4.969221 0.90362,-7.503369 -0.11203,-2.764195 -0.6026,-5.496896 -1.23383,-8.185434 -0.51267,-2.311663 -0.54689,-4.690189 -0.61068,-7.046637 0.005,-0.34761 -0.0411,-0.704451 -0.004,-1.046375 0.25621,-0.662883 1.0581,-0.869559 1.36168,-1.501683 0.95173,-1.426745 0.47916,-3.615869 -1.03363,-4.459754 -0.6415,-0.410058 -1.41629,-0.595192 -2.17401,-0.561965 z"
       id="path22" />
    <path
       style="fill:#0446ff;stroke-linecap:round;stroke-linejoin:bevel;stroke-miterlimit:1.84;paint-order:fill markers stroke;filter:url(#filter3-2)"
       d="m 115.1183,68.657555 a 2.2518094,2.2518094 0 0 1 -2.25181,2.251809 2.2518094,2.2518094 0 0 1 -2.25181,-2.251809 2.2518094,2.2518094 0 0 1 2.25181,-2.25181 2.2518094,2.2518094 0 0 1 2.25181,2.25181 z"
       id="path70"
       transform="matrix(1.1224837,0,0,1.1224837,-23.297085,37.443767)" />
    <path
       style="fill:#0446ff;stroke-linecap:round;stroke-linejoin:bevel;stroke-miterlimit:1.84;paint-order:fill markers stroke;filter:url(#filter3-9)"
       d="m 115.1183,68.657555 a 2.2518094,2.2518094 0 0 1 -2.25181,2.251809 2.2518094,2.2518094 0 0 1 -2.25181,-2.251809 2.2518094,2.2518094 0 0 1 2.25181,-2.25181 2.2518094,2.2518094 0 0 1 2.25181,2.25181 z"
       id="path66"
       transform="matrix(1.1224837,0,0,1.1224837,-23.577715,-27.012122)" />
    <path
       style="fill:#0446ff;stroke-linecap:round;stroke-linejoin:bevel;stroke-miterlimit:1.84;paint-order:fill markers stroke;filter:url(#filter3)"
       d="m 115.1183,68.657555 a 2.2518094,2.2518094 0 0 1 -2.25181,2.251809 2.2518094,2.2518094 0 0 1 -2.25181,-2.251809 2.2518094,2.2518094 0 0 1 2.25181,-2.25181 2.2518094,2.2518094 0 0 1 2.25181,2.25181 z"
       id="path62"
       transform="matrix(1.1224837,0,0,1.1224837,-9.2474441,-6.47558)" />
    <path
       style="fill:#0446ff;stroke-linecap:round;stroke-linejoin:bevel;stroke-miterlimit:1.84;paint-order:fill markers stroke;filter:url(#filter3)"
       d="m 87.951172,89.521484 c -1.637891,10e-7 -2.980469,1.344531 -2.980469,2.982422 0,1.637891 1.342578,2.980469 2.980469,2.980469 1.637891,0 2.982421,-1.342578 2.982422,-2.980469 0,-1.637891 -1.344531,-2.982421 -2.982422,-2.982422 z m 0,1.458985 c 0.849389,0 1.523438,0.674048 1.523437,1.523437 0,0.849389 -0.674048,1.521484 -1.523437,1.521485 -0.849389,-10e-7 -1.521484,-0.672096 -1.521485,-1.521485 0,-0.849389 0.672096,-1.523437 1.521485,-1.523437 z"
       id="path59"
       transform="matrix(1.1224837,0,0,1.1224837,-9.2474441,-6.47558)" />
    <g
       id="g42">
      <path
         style="fill:#00bef7;stroke-linecap:round;stroke-linejoin:bevel;stroke-miterlimit:1.84;paint-order:fill markers stroke"
         d="m 103.81641,113.14062 c 0.98363,0.30606 1.5567,1.55944 1.08789,2.49024 -0.60799,0.85212 -2.03571,1.0043 -2.73828,0.18945 -0.62713,-0.86386 -0.22454,-2.30904 0.82899,-2.61715 0.25999,-0.0755 0.55531,-0.11983 0.8214,-0.0625 z"
         id="path88" />
      <path
         style="fill:#00bef7;stroke-linecap:round;stroke-linejoin:bevel;stroke-miterlimit:1.84;paint-order:fill markers stroke"
         d="m 89.751953,95.962891 c 1.106673,0.187522 1.784064,1.629718 1.173828,2.585937 -0.628412,0.827888 -2.060664,0.911193 -2.708984,0.06445 -0.647342,-0.906811 -0.08967,-2.413537 1.029976,-2.602581 0.166286,-0.03241 0.335523,-0.05329 0.50518,-0.04781 z"
         id="path87" />
      <path
         style="fill:#00bef7;stroke-linecap:round;stroke-linejoin:bevel;stroke-miterlimit:1.84;paint-order:fill markers stroke"
         d="m 103.3418,86.753906 c -0.79775,0.148905 -1.33934,1.023129 -1.17969,1.806641 l -0.002,23.138673 c -1.66242,0.70471 -2.49295,2.89995 -1.67188,4.51758 0.80329,1.30194 2.44565,2.1162 3.96289,1.74218 1.74,-0.52611 2.7995,-2.68201 2.05553,-4.36297 -0.31327,-0.75527 -0.88654,-1.39362 -1.58873,-1.8089 -0.30137,-1.49814 -0.0961,-3.03126 -0.16395,-4.54549 l 0.0155,-19.309979 c -0.10878,-0.665374 -0.7431,-1.221708 -1.42773,-1.177735 z"
         id="path86" />
      <path
         style="fill:#00bef7;stroke-linecap:round;stroke-linejoin:bevel;stroke-miterlimit:1.84;paint-order:fill markers stroke"
         d="m 117.93359,69.191406 c 0.64224,0.166512 1.09474,0.787371 1.22415,1.418706 0.1111,0.532398 0.009,1.186136 -0.48534,1.496327 -0.62539,0.461248 -1.61783,0.476427 -2.16913,-0.106189 -0.56722,-0.831287 -0.35149,-2.149359 0.55532,-2.650641 0.2793,-0.101436 0.57435,-0.191193 0.875,-0.158203 z"
         id="path85" />
      <path
         style="fill:#00bef7;stroke-linecap:round;stroke-linejoin:bevel;stroke-miterlimit:1.84;paint-order:fill markers stroke"
         d="m 117.27539,67.541016 c -1.40337,0.242167 -2.43164,1.589855 -2.51915,2.975973 -0.11323,1.260284 0.44547,2.569618 1.46251,3.330667 0.36203,1.213334 0.0798,2.483973 0.13209,3.723652 -0.0395,1.428053 -0.0789,2.856107 -0.11842,4.284161 -0.86583,0.396188 -1.83866,0.170668 -2.75141,0.307453 -5.391,0.304445 -10.8007,0.69836 -16.197807,0.296062 -2.516384,-0.149716 -5.036677,-0.294924 -7.558594,-0.236328 -1.038822,0.245637 -1.700041,1.379476 -1.55664,2.410156 l 0.07617,9.664063 c -0.304673,0.608197 -1.097321,0.765817 -1.368956,1.401351 -0.826953,1.140821 -0.859271,2.886602 0.136094,3.938918 0.940201,1.077936 2.585007,1.591216 3.926857,1.002086 1.571083,-0.722375 2.379749,-2.817641 1.572293,-4.376246 -0.314424,-0.664098 -0.854478,-1.199828 -1.469413,-1.591109 -0.384029,-1.155845 -0.12189,-2.384685 -0.228121,-3.573285 l -0.100004,-6.206012 c 0.865036,-0.413059 1.836395,-0.140213 2.751469,-0.180136 6.158784,0.20664 12.326892,0.286105 18.484232,-0.01011 1.67423,-0.06896 3.34821,-0.143529 5.02211,-0.219913 1.09987,-0.28662 1.82767,-1.449793 1.74414,-2.560547 0.10913,-2.531826 0.11631,-5.066406 0.17383,-7.599609 0.20204,-0.696359 0.9991,-0.931159 1.32844,-1.543587 0.97476,-1.368302 0.71512,-3.502395 -0.66339,-4.507513 -0.63847,-0.505691 -1.46425,-0.773401 -2.27833,-0.73015 z"
         id="path84" />
      <path
         style="fill:#00bef7;stroke-linecap:round;stroke-linejoin:bevel;stroke-miterlimit:1.84;paint-order:fill markers stroke"
         d="m 133.42969,64.082031 c -0.82086,0.289584 -1.21005,1.238768 -1.11831,2.058126 0.0376,2.477878 -7.1e-4,4.956182 0.009,7.434254 -0.008,7.98496 -0.01,15.969923 -0.0102,23.954886 -2.99174,0.215642 -5.99234,0.04073 -8.98793,0.104272 l -14.12731,0.04417 c -0.66728,0.07482 -1.24233,0.621431 -1.37109,1.277344 0.19747,0.867321 1.1561,1.426457 2.01367,1.263667 7.7005,0.0218 15.40106,0.0264 23.10156,0.006 1.18521,-0.15334 2.07457,-1.382748 1.91407,-2.554683 0.0421,-10.647368 0.0682,-21.29506 0.0238,-31.942375 -0.009,-0.567651 -0.21065,-1.205776 -0.75429,-1.475594 -0.21028,-0.118012 -0.45159,-0.183024 -0.69336,-0.169922 z"
         id="path83" />
      <path
         style="fill:#00bef7;stroke-linecap:round;stroke-linejoin:bevel;stroke-miterlimit:1.84;paint-order:fill markers stroke"
         d="m 86.257162,88.729818 c -1.118234,0.214278 -1.890434,1.397093 -1.740329,2.507352 -0.02938,13.22344 -0.04103,5.280247 -0.03506,18.50372 0.09377,0.86384 1.148026,1.46288 1.93164,1.07031 0.631606,-0.51304 0.753355,-1.40128 0.660156,-2.16406 -0.01818,-12.815102 -0.0094,-4.46355 -0.0059,-17.27865 z"
         id="path82"
         sodipodi:nodetypes="ccccccc" />
      <path
         style="fill:#00bef7;stroke-linecap:round;stroke-linejoin:bevel;stroke-miterlimit:1.84;paint-order:fill markers stroke"
         d="m 103.51758,48.648438 c 0.96791,0.291607 1.54948,1.486362 1.14844,2.421874 -0.62807,0.847449 -2.01376,1.000072 -2.78125,0.259766 -0.63562,-0.851619 -0.23345,-2.297209 0.81054,-2.605469 0.26607,-0.05774 0.55184,-0.145606 0.82227,-0.07617 z"
         id="path81" />
      <path
         style="fill:#00bef7;stroke-linecap:round;stroke-linejoin:bevel;stroke-miterlimit:1.84;paint-order:fill markers stroke"
         d="m 102.5625,47.039062 c -1.73597,0.321883 -3.034415,2.220201 -2.603516,3.953126 0.271276,0.915147 0.914166,1.713089 1.749996,2.173828 0.28261,1.570715 0.007,3.163096 -0.043,4.740943 -0.1869,2.542902 -0.77383,5.030819 -1.30804,7.516706 -0.466192,2.864295 -0.531931,5.809087 -0.0479,8.675401 0.36013,1.968511 0.90977,3.895632 1.358,5.844293 0.19385,0.591312 0.77869,0.977802 1.38729,1.0133 0.7378,0.07433 1.55828,-0.351453 1.75378,-1.101444 0.22805,-0.728602 0.31138,-1.493194 0.52827,-2.225232 0.61286,-2.561228 1.19164,-5.17372 1.07333,-7.824393 -0.073,-2.92136 -0.66959,-5.794484 -1.30042,-8.637457 -0.38054,-1.757124 -0.47434,-3.556997 -0.53728,-5.348615 -0.029,-0.793887 -0.0507,-1.58803 -0.0769,-2.382018 0.59398,-0.600571 1.40934,-1.046168 1.71386,-1.87908 0.62855,-1.434992 0.0132,-3.295829 -1.37949,-4.034819 -0.66036,-0.374038 -1.43914,-0.556655 -2.19547,-0.496339 l -0.0477,0.0078 z"
         id="path73" />
    </g>
    <g
       id="g15"
       transform="matrix(1.1462964,0,0,1.1494805,-19.555665,-29.045427)"
       inkscape:export-filename="statement_lens_icon.png"
       inkscape:export-xdpi="96"
       inkscape:export-ydpi="96"
       style="stroke-width:0.871166">
      <path
         id="path31"
         style="fill:#14c4ff;fill-opacity:0.350927;stroke:none;stroke-width:4.93515;stroke-dasharray:none;stroke-opacity:1;paint-order:stroke fill markers"
         d="m 106.24219,62.523438 c -7.441996,0.248365 -14.663356,4.238638 -18.741554,10.48546 -2.021546,3.059421 -3.225878,6.375398 -3.723292,9.996961 -0.338758,2.547142 -0.2523,5.203451 0.25,7.707032 0.673642,3.309663 2.102611,6.623439 4.184039,9.364899 3.919798,5.32536 10.165076,8.86419 16.763187,9.40718 5.50669,0.51617 11.16654,-0.97202 15.69227,-4.21172 4.06563,-2.86423 7.21875,-7.069367 8.74894,-11.749177 1.97091,-5.821674 1.49555,-12.450444 -1.2089,-17.873104 -3.06235,-6.258033 -9.02262,-11.007515 -15.82689,-12.535363 -2.00654,-0.470428 -4.07825,-0.669225 -6.1378,-0.592168 z" />
      <path
         id="rect31"
         style="fill:#061824;fill-opacity:1;stroke:#b9e5f4;stroke-width:3.74601;stroke-dasharray:none;stroke-opacity:1;paint-order:stroke fill markers"
         d="m 48.896484,53.169922 c -1.698712,0.111134 -3.102731,1.368184 -3.72538,2.904345 -0.616403,1.265079 -1.370231,2.614084 -1.048057,4.076124 0.237895,1.617652 1.456197,2.959805 2.991602,3.475016 10.629148,5.043812 21.279565,10.041279 31.920507,15.06014 -2.392624,8.798088 -0.200862,18.627695 5.545025,25.680723 5.951663,7.43705 15.759889,11.5669 25.237969,10.57872 9.34213,-0.83371 18.11595,-6.50157 22.63048,-14.73799 4.11918,-7.303937 4.81532,-16.421522 1.84513,-24.265874 -2.90788,-7.889227 -9.39052,-14.394557 -17.34146,-17.180882 -7.50656,-2.756148 -16.13638,-2.164075 -23.210112,1.558115 -3.938731,2.045894 -7.429906,4.975301 -10.03711,8.574219 C 72.782286,63.749286 61.860362,58.59349 50.9375,53.457031 50.282508,53.232169 49.589811,53.113153 48.896484,53.169922 Z m 58.273436,11.623047 c 4.82062,0.01026 9.69622,1.799153 13.36524,4.800781 4.29649,3.493103 7.11886,8.620942 7.68885,14.126348 0.43306,4.092339 -0.26648,8.174831 -2.14393,11.863886 -3.21237,6.605326 -10.10829,11.205366 -17.4336,11.681636 -3.44814,0.27568 -7.20436,-0.42909 -10.342658,-1.88427 -4.853571,-2.16444 -8.828953,-6.231306 -10.843668,-11.18838 -2.32698,-5.567929 -2.14099,-12.126631 0.592042,-17.518193 1.657402,-3.428506 4.275085,-6.394366 7.45757,-8.436496 3.423285,-2.21516 7.528564,-3.477241 11.660154,-3.445312 z" />
      <path
         id="path39"
         style="fill:#ffffff;fill-opacity:0.380884;stroke-width:2.26503;paint-order:stroke fill markers"
         d="m 105.4043,69.127083 c -3.15952,0.22925 -6.288868,1.078079 -9.076175,2.595703 5.497795,-1.828124 11.656235,-1.270465 16.839195,1.264953 5.23405,2.519334 9.74537,7.06968 11.2526,12.787782 -0.21835,-3.38537 -1.42833,-6.603693 -3.42739,-9.364023 -2.30464,-3.196898 -5.87656,-5.764315 -9.82585,-6.703919 -1.87383,-0.498671 -3.82645,-0.700528 -5.76238,-0.580496 z" />
      <path
         id="rect39"
         style="fill:#a4f8f8;fill-opacity:0.570613;stroke-width:2.26503;paint-order:stroke fill markers"
         d="m 49.785367,54.942424 31.186946,14.510659 c 0.559042,0.260111 0.770728,1.004583 0.543135,1.477313 -0.213636,0.44374 -0.962325,0.550365 -1.401953,0.466304 L 48.926548,56.886036 c -0.559042,-0.260111 -0.770728,-1.004582 -0.543135,-1.477312 0.213636,-0.44374 0.962325,-0.550365 1.401953,-0.466304 z"
         sodipodi:nodetypes="ssassass"
         inkscape:export-filename="statement_lens_icon.png"
         inkscape:export-xdpi="96"
         inkscape:export-ydpi="96" />
      <path
         id="path80"
         style="fill:#a4f8f8;fill-opacity:0.572549;stroke:none;stroke-width:2.26503;stroke-dasharray:none;stroke-opacity:1;paint-order:stroke fill markers"
         d="m 86.851967,68.955251 c -1.54419,1.54419 0.423728,1.351358 2.248442,-0.473356 1.826583,-2.003464 3.983385,-3.703906 6.387207,-4.97799 3.420595,-1.848721 7.282804,-2.887362 11.174514,-2.937289 8.99142,-0.232909 17.86297,4.988688 22.02088,12.96355 2.53303,4.720228 3.35962,10.281413 2.48563,15.552022 0,0 0.62659,3.596825 1.10226,1.821594 0.34486,-1.476899 0.56133,-2.988926 0.63149,-4.520654 0.26927,-5.216288 -1.04421,-10.51458 -3.83543,-14.986682 -3.01683,-4.871618 -7.64877,-8.71312 -13.08189,-10.668599 -3.46714,-1.268291 -7.2074,-1.765982 -10.88719,-1.485181 -1.85243,0.158829 -3.8897,0.50234 -5.733498,1.106909 -4.918212,1.564552 -9.29676,4.603972 -12.512415,8.605676 z"
         sodipodi:nodetypes="ccccccccccccc" />
    </g>
  </g>
</svg>
