<?xml version="1.0" encoding="UTF-8" standalone="no"?>
<!-- Created with Inkscape (http://www.inkscape.org/) -->

<svg
   width="210mm"
   height="297mm"
   viewBox="0 0 210 297"
   version="1.1"
   id="svg1"
   inkscape:version="1.4 (86a8ad7, 2024-10-11)"
   sodipodi:docname="whisper_icon.svg"
   inkscape:export-filename="whisper_icon.png"
   inkscape:export-xdpi="96"
   inkscape:export-ydpi="96"
   xmlns:inkscape="http://www.inkscape.org/namespaces/inkscape"
   xmlns:sodipodi="http://sodipodi.sourceforge.net/DTD/sodipodi-0.dtd"
   xmlns="http://www.w3.org/2000/svg"
   xmlns:svg="http://www.w3.org/2000/svg">
  <sodipodi:namedview
     id="namedview1"
     pagecolor="#505050"
     bordercolor="#eeeeee"
     borderopacity="1"
     inkscape:showpageshadow="0"
     inkscape:pageopacity="0"
     inkscape:pagecheckerboard="0"
     inkscape:deskcolor="#d1d1d1"
     inkscape:document-units="mm"
     inkscape:zoom="0.70710678"
     inkscape:cx="350.72496"
     inkscape:cy="549.42197"
     inkscape:window-width="1920"
     inkscape:window-height="1017"
     inkscape:window-x="-8"
     inkscape:window-y="-8"
     inkscape:window-maximized="1"
     inkscape:current-layer="layer1"
     showgrid="false" />
  <defs
     id="defs1">
    <filter
       inkscape:collect="always"
       style="color-interpolation-filters:sRGB"
       id="filter1354"
       x="-0.62775044"
       y="-0.01168632"
       width="2.2555009"
       height="1.0233726">
      <feGaussianBlur
         inkscape:collect="always"
         stdDeviation="21.515 0"
         id="feGaussianBlur1354" />
    </filter>
    <filter
       inkscape:collect="always"
       style="color-interpolation-filters:sRGB"
       id="filter3587"
       x="-2.5605335"
       y="0"
       width="6.1210669"
       height="1">
      <feGaussianBlur
         inkscape:collect="always"
         stdDeviation="70.796 0"
         id="feGaussianBlur3587" />
    </filter>
    <filter
       inkscape:collect="always"
       style="color-interpolation-filters:sRGB"
       id="filter3661"
       x="-0.12742408"
       y="0"
       width="1.2548482"
       height="1">
      <feGaussianBlur
         inkscape:collect="always"
         stdDeviation="4.425 0"
         id="feGaussianBlur3661" />
    </filter>
    <filter
       inkscape:collect="always"
       style="color-interpolation-filters:sRGB"
       id="filter370"
       x="-0.035660882"
       y="-0.078128402"
       width="1.0713218"
       height="1.1562568">
      <feGaussianBlur
         inkscape:collect="always"
         stdDeviation="1.1880067"
         id="feGaussianBlur370" />
    </filter>
  </defs>
  <g
     inkscape:label="Layer 1"
     inkscape:groupmode="layer"
     id="layer1">
    <g
       id="g3589"
       transform="matrix(0.55820087,0,0,0.55820087,46.045927,79.52409)"
       style="fill:#00ffe1;fill-opacity:1">
      <path
         style="mix-blend-mode:normal;fill:#00ffe1;fill-opacity:1;stroke-linecap:square;stroke-miterlimit:1.84;paint-order:stroke fill markers;filter:url(#filter3587)"
         d="m 100.04297,-47.351562 h 66.35742 v 66.357421 h -66.35742 z"
         transform="rotate(45,-1.4171121e-6,2.3333333e-7)"
         id="path3588" />
      <path
         style="fill:#00ffe1;fill-opacity:1;stroke-linecap:square;stroke-miterlimit:1.84;paint-order:stroke fill markers;filter:url(#filter3587)"
         d="M 82.583984,-64.810547 V 36.464844 H 183.85937 V -64.810547 Z"
         transform="rotate(45,-1.4171121e-6,2.3333333e-7)"
         id="rect3587" />
    </g>
    <rect
       style="fill:#000000;fill-opacity:1;stroke-width:1.959;stroke-linecap:square;stroke-miterlimit:1.84;paint-order:stroke fill markers"
       id="rect1"
       width="83.815948"
       height="83.815948"
       x="121.24774"
       y="-26.146305"
       transform="rotate(45)" />
    <rect
       style="fill:none;fill-opacity:1;stroke:#6600f7;stroke-width:1.959;stroke-linecap:square;stroke-miterlimit:1.84;stroke-opacity:1;paint-order:stroke fill markers;filter:url(#filter1354)"
       id="rect1354"
       width="83.815948"
       height="83.815948"
       x="91.313553"
       y="-56.080482"
       transform="rotate(45,-51.100855,21.166665)" />
    <rect
       style="fill:none;fill-opacity:1;stroke:#00ffe1;stroke-width:1.959;stroke-linecap:square;stroke-miterlimit:1.84;stroke-opacity:1;paint-order:stroke fill markers"
       id="rect1353"
       width="83.815948"
       height="83.815948"
       x="121.24774"
       y="-26.146305"
       transform="rotate(45)"
       inkscape:export-filename="pulse_icon.png"
       inkscape:export-xdpi="96"
       inkscape:export-ydpi="96" />
    <g
       id="g3661"
       transform="translate(-5.4970597,44.979169)"
       inkscape:export-filename="catalyst_icon.png"
       inkscape:export-xdpi="96"
       inkscape:export-ydpi="96">
      <rect
         style="mix-blend-mode:normal;fill:#000000;fill-opacity:1;stroke:none;stroke-width:2.78969;stroke-linecap:round;stroke-linejoin:bevel;stroke-miterlimit:1.84;stroke-dasharray:none;stroke-opacity:1;paint-order:fill markers stroke;filter:url(#filter3661)"
         id="rect3661"
         width="83.34375"
         height="17.991667"
         x="68.048515"
         y="115.89714"
         transform="matrix(1.398312,0,0,1.032789,-43.702954,-4.0951116)" />
      <text
         xml:space="preserve"
         style="font-style:normal;font-variant:normal;font-weight:normal;font-stretch:normal;font-size:19.7556px;font-family:'Solid Grooves';-inkscape-font-specification:'Solid Grooves';text-align:center;letter-spacing:0.79375px;writing-mode:lr-tb;direction:ltr;text-anchor:middle;fill:#00ffe1;fill-opacity:1;stroke:none;stroke-width:3.2;stroke-linecap:round;stroke-linejoin:bevel;stroke-miterlimit:1.84;stroke-dasharray:none;stroke-opacity:1;paint-order:fill markers stroke"
         x="109.72039"
         y="131.65021"
         id="text3661"><tspan
           sodipodi:role="line"
           id="tspan3661"
           style="font-style:normal;font-variant:normal;font-weight:normal;font-stretch:normal;font-size:19.7556px;font-family:'Solid Grooves';-inkscape-font-specification:'Solid Grooves';text-align:center;letter-spacing:0.79375px;writing-mode:lr-tb;text-anchor:middle;fill:#00ffe1;fill-opacity:1;stroke:none;stroke-width:3.2;stroke-opacity:1"
           x="110.11726"
           y="131.65021">Whisper</tspan></text>
    </g>
    <path
       id="path322"
       style="mix-blend-mode:normal;fill:#0053ff;fill-opacity:1;stroke-width:2.04365;paint-order:stroke fill markers;filter:url(#filter370)"
       inkscape:transform-center-y="2.7403933"
       d="m 85.417008,115.29169 v 5.1e-4 a 9.2677431,7.4061006 0 0 0 -9.268168,7.40575 9.2677431,7.4061006 0 0 0 6.661092,7.10706 l 0.03669,0.0631 2.591056,4.48861 2.591573,-4.48861 0.04496,-0.0775 a 9.2677431,7.4061006 0 0 0 6.610449,-7.09259 9.2677431,7.4061006 0 0 0 -9.267652,-7.40626 z m 38.984702,0 a 9.2677431,7.4061006 0 0 0 -9.26765,7.40626 9.2677431,7.4061006 0 0 0 6.61045,7.09259 l 0.045,0.0775 2.59157,4.48861 2.59157,-4.48861 0.0362,-0.0631 a 9.2677431,7.4061006 0 0 0 6.6611,-7.10706 9.2677431,7.4061006 0 0 0 -9.26817,-7.40575 z m -39.084437,1.87223 c 2.084753,-0.006 4.238886,0.60513 5.797579,2.02934 1.555286,1.2523 2.193936,3.61327 1.230933,5.40897 -1.05866,2.05162 -3.307605,3.14996 -5.489071,3.57239 -0.36628,0.63156 -0.730969,1.26457 -1.096574,1.89653 -0.182418,0.36316 -0.364677,0.76361 -0.547253,0.17001 -0.510267,-0.72644 -0.741815,-1.7542 -1.63711,-2.14302 -1.66524,-0.41795 -3.342212,-1.1579 -4.44624,-2.52439 -1.222561,-1.34375 -1.450565,-3.47445 -0.508496,-5.03225 1.295222,-2.15548 3.849322,-3.22717 6.280237,-3.36827 0.138169,-0.006 0.277009,-0.009 0.415995,-0.009 z m 39.184167,0 c 0.13898,0 0.27783,0.003 0.416,0.009 2.43091,0.1411 4.98502,1.21279 6.28024,3.36827 0.94207,1.5578 0.71406,3.6885 -0.5085,5.03225 -1.10403,1.36649 -2.781,2.10644 -4.44624,2.52439 -0.89529,0.38882 -1.12684,1.41658 -1.63711,2.14302 -0.18257,0.5936 -0.36483,0.19315 -0.54725,-0.17001 -0.3656,-0.63196 -0.7303,-1.26497 -1.09658,-1.89653 -2.18147,-0.42243 -4.42989,-1.52077 -5.48855,-3.57239 -0.963,-1.7957 -0.32486,-4.15667 1.23042,-5.40897 1.55869,-1.42421 3.71281,-2.03534 5.79757,-2.02934 z m -57.103487,0.13178 c -0.06623,5.3e-4 -0.133135,0.003 -0.200504,0.008 -2.534607,0.0191 -3.907634,3.26532 -2.187464,5.11545 0.728577,0.85486 1.824231,1.16458 2.837553,1.00149 l 14.065808,23.4058 c -0.826299,1.11874 -0.935686,2.77912 0.117823,3.91501 1.511822,1.76985 4.601928,1.20649 5.258077,-1.07849 0.317601,-0.93048 0.143006,-1.90002 -0.349333,-2.6572 l 16.705957,-23.62543 c 0.48394,0.11251 0.99053,0.10846 1.47071,-0.004 l 16.71164,23.63629 c -0.69158,1.08615 -0.7477,2.58605 0.19534,3.66179 1.44936,1.79778 4.5111,1.34947 5.27306,-0.87695 0.40094,-1.05091 0.16634,-2.17448 -0.45992,-2.99258 l 13.78624,-23.37739 c 1.42298,0.21159 2.96848,-0.54213 3.4122,-2.07894 0.69138,-2.0081 -0.91032,-4.20633 -3.06648,-4.04523 -2.47913,0.0171 -3.84197,3.12135 -2.29754,4.99039 l -13.7728,23.35155 c -0.20392,-0.0296 -0.41489,-0.0385 -0.63252,-0.0233 -0.21039,0.002 -0.41273,0.0258 -0.60616,0.0693 L 106.97538,122.0927 c 0.14296,-0.22448 0.25779,-0.47466 0.33693,-0.75034 0.68736,-2.00788 -0.91678,-4.1998 -3.07009,-4.03903 -2.39157,0.0165 -3.74436,2.90581 -2.4505,4.78782 l -16.688387,23.60218 c -0.280349,-0.0659 -0.576676,-0.0927 -0.884701,-0.0698 -0.128331,8.9e-4 -0.253583,0.0106 -0.375688,0.0274 L 69.79884,122.28299 c 0.20503,-0.26959 0.366204,-0.58278 0.468706,-0.93793 0.664932,-1.946 -0.816381,-4.06572 -2.869593,-4.04936 z m 14.02395,3.84421 c -0.739089,0 -1.355479,0.61638 -1.355472,1.35547 7e-6,0.73908 0.616392,1.35754 1.355472,1.35754 0.73908,0 1.355466,-0.61846 1.355473,-1.35754 7e-6,-0.73909 -0.616384,-1.35547 -1.355473,-1.35547 z m 3.994072,0 c -0.73909,0 -1.35548,0.61638 -1.355473,1.35547 6e-6,0.73908 0.616393,1.35754 1.355473,1.35754 0.739079,0 1.357534,-0.61846 1.35754,-1.35754 8e-6,-0.73909 -0.618452,-1.35547 -1.35754,-1.35547 z m 3.996138,0 c -0.739089,0 -1.35548,0.61638 -1.355472,1.35547 6e-6,0.73908 0.616392,1.35754 1.355472,1.35754 0.739079,0 1.355467,-0.61846 1.355473,-1.35754 7e-6,-0.73909 -0.616384,-1.35547 -1.355473,-1.35547 z m 30.996037,0 c -0.73908,1e-5 -1.35755,0.61638 -1.35754,1.35547 10e-6,0.73907 0.61847,1.35753 1.35754,1.35754 0.73909,1e-5 1.35548,-0.61846 1.35548,-1.35754 10e-6,-0.73909 -0.61638,-1.35548 -1.35548,-1.35547 z m 3.99408,0 c -0.73909,-1e-5 -1.35549,0.61638 -1.35548,1.35547 0,0.73908 0.6164,1.35755 1.35548,1.35754 0.73908,-1e-5 1.35547,-0.61847 1.35547,-1.35754 1e-5,-0.73909 -0.61638,-1.35546 -1.35547,-1.35547 z m 3.99407,0 c -0.73909,-1e-5 -1.35549,0.61638 -1.35548,1.35547 0,0.73908 0.6164,1.35755 1.35548,1.35754 0.73908,-1e-5 1.35547,-0.61847 1.35547,-1.35754 1e-5,-0.73909 -0.61638,-1.35546 -1.35547,-1.35547 z m -24.02954,13.0576 -1.91203,3.31194 -0.0331,0.0568 a 6.8383521,5.4647095 0 0 0 -4.877743,5.23379 6.8383521,5.4647095 0 0 0 6.838343,5.46478 6.8383521,5.4647095 0 0 0 6.83834,-5.46478 6.8383521,5.4647095 0 0 0 -4.91494,-5.24413 l -0.0269,-0.0465 z m 0.0145,2.81327 c 0.0505,-0.002 0.10089,0.059 0.15141,0.22324 0.37651,0.53601 0.54758,1.29441 1.20819,1.5813 1.22872,0.3084 2.46579,0.85464 3.28042,1.86293 0.90208,0.99151 1.07029,2.5635 0.37517,3.71295 -0.9557,1.59045 -2.84013,2.38152 -4.63382,2.48564 -0.10195,0.004 -0.2044,0.007 -0.30696,0.007 -1.53827,0.005 -3.12768,-0.44672 -4.27778,-1.49759 -1.147591,-0.92403 -1.618516,-2.66598 -0.90795,-3.99097 0.78115,-1.51382 2.44025,-2.32432 4.04988,-2.63601 0.27027,-0.46601 0.53948,-0.9331 0.80925,-1.3994 0.0841,-0.16748 0.16805,-0.34563 0.25219,-0.34881 z m -2.90835,4.92424 c -0.55252,1e-5 -1.01389,0.46086 -1.0139,1.01338 0,0.55253 0.46137,1.01388 1.0139,1.01389 0.55254,0 1.01337,-0.46135 1.01337,-1.01389 -10e-6,-0.55253 -0.46084,-1.01338 -1.01337,-1.01338 z m 2.9099,0 c -0.55253,0 -1.01389,0.46085 -1.0139,1.01338 -1e-5,0.55254 0.46136,1.01389 1.0139,1.01389 0.55253,-1e-5 1.0139,-0.46136 1.01389,-1.01389 0,-0.55252 -0.46137,-1.01337 -1.01389,-1.01338 z m 2.91041,0 c -0.55253,0 -1.01388,0.46085 -1.01389,1.01338 -1e-5,0.55254 0.46135,1.01389 1.01389,1.01389 0.55253,-1e-5 1.01339,-0.46136 1.01338,-1.01389 -1e-5,-0.55252 -0.46086,-1.01337 -1.01338,-1.01338 z"
       transform="matrix(1.0741337,0,0,1.0741337,-7.726304,-12.356417)" />
    <g
       id="g27"
       transform="matrix(1.0741337,0,0,1.0741337,-2.8089169,43.888713)"
       inkscape:export-filename="whisper_icon.png"
       inkscape:export-xdpi="96"
       inkscape:export-ydpi="96">
      <g
         id="g128"
         transform="matrix(1.0999183,0,0,1.0999183,-8.0772778,-10.732427)">
        <g
           id="g21"
           inkscape:export-filename="whisper_icon.png"
           inkscape:export-xdpi="96"
           inkscape:export-ydpi="96"
           transform="matrix(-0.74859986,0,0,-0.74859986,155.3564,148.25513)"
           style="stroke-width:1.33582">
          <g
             id="g20"
             style="fill:#00ffe1;fill-opacity:1;stroke-width:1.87553"
             transform="matrix(-0.71224294,0,0,-0.71224294,174.2306,138.30249)">
            <path
               id="path19"
               style="opacity:1;fill:#00ffe1;fill-opacity:1;stroke-width:3.48472;paint-order:stroke fill markers"
               inkscape:transform-center-x="1.0784629e-06"
               inkscape:transform-center-y="2.5512589"
               d="M 104.86337,41.726135 A 15.802859,12.628486 0 0 0 89.060197,54.354822 15.802859,12.628486 0 0 0 100.41816,66.472945 l 0.062,0.107487 4.41885,7.653797 4.41886,-7.653797 0.0765,-0.131775 A 15.802859,12.628486 0 0 0 120.66602,54.354822 15.802859,12.628486 0 0 0 104.86337,41.726135 Z m -0.17002,3.191537 c 3.55481,-0.01088 7.2279,1.032296 9.8857,3.46077 2.65199,2.135355 3.74064,6.161273 2.09858,9.22321 -1.80517,3.498304 -5.6394,5.371315 -9.35912,6.091618 -0.62456,1.076911 -1.24624,2.155813 -1.86965,3.233394 -0.31105,0.619247 -0.62196,1.302069 -0.93328,0.289905 -0.87008,-1.238693 -1.26495,-2.991047 -2.79156,-3.654041 -2.839477,-0.712673 -5.698915,-1.974584 -7.581446,-4.304646 -2.084644,-2.291295 -2.473494,-5.924594 -0.86713,-8.580872 2.208544,-3.675402 6.56384,-5.502713 10.708906,-5.743319 0.2356,-0.01 0.47201,-0.01529 0.709,-0.01602 z" />
          </g>
        </g>
        <g
           id="g56"
           transform="matrix(0.80195994,0,0,0.80195994,12.05311,8.5906254)">
          <circle
             style="fill:#00ffe1;fill-opacity:1;stroke:#00ffe1;stroke-width:1.858;stroke-opacity:1;paint-order:stroke fill markers"
             id="path55"
             cx="81.243256"
             cy="80.962616"
             r="0.60803819" />
          <circle
             style="fill:#00ffe1;fill-opacity:1;stroke:#00ffe1;stroke-width:1.858;stroke-opacity:1;paint-order:stroke fill markers"
             id="circle55"
             cx="85.772018"
             cy="80.962616"
             r="0.60803819" />
          <circle
             style="fill:#00ffe1;fill-opacity:1;stroke:#00ffe1;stroke-width:1.858;stroke-opacity:1;paint-order:stroke fill markers"
             id="circle56"
             cx="90.300774"
             cy="80.962616"
             r="0.60803819" />
        </g>
      </g>
      <g
         id="g26"
         transform="translate(0,-4.2333335)">
        <path
           style="fill:none;fill-opacity:1;stroke:#00ffe1;stroke-width:2.258;stroke-dasharray:none;stroke-opacity:1;paint-order:stroke fill markers"
           d="M 62.76029,72.252561 79.780493,100.57298 99.804234,72.252561 119.82798,100.57298 136.53035,72.252561"
           id="path11"
           sodipodi:nodetypes="ccccc" />
        <path
           id="circle16"
           style="fill:#00ffe1;fill-opacity:1;stroke:#00ffe1;stroke-width:1.858;stroke-opacity:1;paint-order:stroke fill markers"
           d="m 99.697266,70.089844 c -1.72957,-0.0155 -2.715866,2.340652 -1.535157,3.58789 1.016428,1.220653 3.262011,0.829413 3.693301,-0.736254 0.50467,-1.404809 -0.64627,-2.994465 -2.158144,-2.851636 z" />
        <path
           id="circle23"
           style="fill:#00ffe1;fill-opacity:1;stroke:#00ffe1;stroke-width:1.858;stroke-opacity:1;paint-order:stroke fill markers"
           d="m 79.673828,98.410156 c -1.72957,-0.0155 -2.715865,2.340654 -1.535156,3.587894 1.016462,1.22068 3.261918,0.82937 3.693304,-0.73626 0.502391,-1.405445 -0.644819,-2.994253 -2.158148,-2.851634 z" />
        <path
           id="circle24"
           style="fill:#00ffe1;fill-opacity:1;stroke:#00ffe1;stroke-width:1.858;stroke-opacity:1;paint-order:stroke fill markers"
           d="m 62.652344,70.089844 c -1.728236,-0.01443 -2.717536,2.340036 -1.535156,3.585937 1.016386,1.223409 3.264457,0.831721 3.69548,-0.736185 0.499787,-1.405988 -0.646881,-2.993165 -2.160324,-2.849752 z" />
        <path
           id="circle25"
           style="fill:#00ffe1;fill-opacity:1;stroke:#00ffe1;stroke-width:1.858;stroke-opacity:1;paint-order:stroke fill markers"
           d="m 119.7207,98.410156 c -1.7047,-0.01232 -2.70316,2.281014 -1.57031,3.542964 0.97414,1.23446 3.19187,0.9243 3.69922,-0.5957 0.5647,-1.435949 -0.55649,-3.083623 -2.12891,-2.947264 z" />
        <path
           id="circle26"
           style="fill:#00ffe1;fill-opacity:1;stroke:#00ffe1;stroke-width:1.858;stroke-opacity:1;paint-order:stroke fill markers"
           d="m 136.42383,70.089844 c -1.72957,-0.0155 -2.71587,2.340652 -1.53516,3.58789 1.0152,1.219695 3.26029,0.830354 3.6912,-0.734348 0.50519,-1.404412 -0.643,-2.996545 -2.15604,-2.853542 z" />
      </g>
      <g
         id="g126"
         transform="matrix(0.81159226,0,0,0.81159226,18.991158,17.172859)">
        <g
           id="g29"
           inkscape:export-filename="whisper_icon.png"
           inkscape:export-xdpi="96"
           inkscape:export-ydpi="96"
           transform="matrix(0.74859986,0,0,0.74859986,25.055969,15.719622)"
           style="stroke-width:1.33582">
          <g
             id="g28"
             style="fill:#00ffe1;fill-opacity:1;stroke-width:1.87553"
             transform="matrix(-0.71224294,0,0,-0.71224294,174.2306,138.30249)">
            <path
               id="path27"
               style="opacity:1;fill:#00ffe1;fill-opacity:1;stroke-width:3.48472;paint-order:stroke fill markers"
               inkscape:transform-center-x="1.0784629e-06"
               inkscape:transform-center-y="2.5512589"
               d="M 104.86337,41.726135 A 15.802859,12.628486 0 0 0 89.060197,54.354822 15.802859,12.628486 0 0 0 100.41816,66.472945 l 0.062,0.107487 4.41885,7.653797 4.41886,-7.653797 0.0765,-0.131775 A 15.802859,12.628486 0 0 0 120.66602,54.354822 15.802859,12.628486 0 0 0 104.86337,41.726135 Z m -0.17002,3.191537 c 3.55481,-0.01088 7.2279,1.032296 9.8857,3.46077 2.65199,2.135355 3.74064,6.161273 2.09858,9.22321 -1.80517,3.498304 -5.6394,5.371315 -9.35912,6.091618 -0.62456,1.076911 -1.24624,2.155813 -1.86965,3.233394 -0.31105,0.619247 -0.62196,1.302069 -0.93328,0.289905 -0.87008,-1.238693 -1.26495,-2.991047 -2.79156,-3.654041 -2.839477,-0.712673 -5.698915,-1.974584 -7.581446,-4.304646 -2.084644,-2.291295 -2.473494,-5.924594 -0.86713,-8.580872 2.208544,-3.675402 6.56384,-5.502713 10.708906,-5.743319 0.2356,-0.01 0.47201,-0.01529 0.709,-0.01602 z" />
          </g>
        </g>
        <g
           id="g59"
           transform="translate(15.379443,9.4927362)">
          <circle
             style="fill:#00ffe1;fill-opacity:1;stroke:#00ffe1;stroke-width:1.50968;stroke-opacity:1;paint-order:stroke fill markers"
             id="circle58"
             cx="84.194099"
             cy="80.962616"
             r="0.49404845" />
          <circle
             style="fill:#00ffe1;fill-opacity:1;stroke:#00ffe1;stroke-width:1.50968;stroke-opacity:1;paint-order:stroke fill markers"
             id="circle321"
             cx="80.60804"
             cy="80.962616"
             r="0.49404845" />
          <circle
             style="fill:#00ffe1;fill-opacity:1;stroke:#00ffe1;stroke-width:1.50968;stroke-opacity:1;paint-order:stroke fill markers"
             id="circle322"
             cx="87.780151"
             cy="80.962616"
             r="0.49404845" />
        </g>
      </g>
      <g
         id="g275"
         transform="matrix(-1.0999183,0,0,1.0999183,208.7402,-10.732427)">
        <g
           id="g272"
           inkscape:export-filename="whisper_icon.png"
           inkscape:export-xdpi="96"
           inkscape:export-ydpi="96"
           transform="matrix(-0.74859986,0,0,-0.74859986,155.3564,148.25513)"
           style="stroke-width:1.33582">
          <g
             id="g271"
             style="fill:#00ffe1;fill-opacity:1;stroke-width:1.87553"
             transform="matrix(-0.71224294,0,0,-0.71224294,174.2306,138.30249)">
            <path
               id="path271"
               style="opacity:1;fill:#00ffe1;fill-opacity:1;stroke-width:3.48472;paint-order:stroke fill markers"
               inkscape:transform-center-x="1.0784629e-06"
               inkscape:transform-center-y="2.5512589"
               d="M 104.86337,41.726135 A 15.802859,12.628486 0 0 0 89.060197,54.354822 15.802859,12.628486 0 0 0 100.41816,66.472945 l 0.062,0.107487 4.41885,7.653797 4.41886,-7.653797 0.0765,-0.131775 A 15.802859,12.628486 0 0 0 120.66602,54.354822 15.802859,12.628486 0 0 0 104.86337,41.726135 Z m -0.17002,3.191537 c 3.55481,-0.01088 7.2279,1.032296 9.8857,3.46077 2.65199,2.135355 3.74064,6.161273 2.09858,9.22321 -1.80517,3.498304 -5.6394,5.371315 -9.35912,6.091618 -0.62456,1.076911 -1.24624,2.155813 -1.86965,3.233394 -0.31105,0.619247 -0.62196,1.302069 -0.93328,0.289905 -0.87008,-1.238693 -1.26495,-2.991047 -2.79156,-3.654041 -2.839477,-0.712673 -5.698915,-1.974584 -7.581446,-4.304646 -2.084644,-2.291295 -2.473494,-5.924594 -0.86713,-8.580872 2.208544,-3.675402 6.56384,-5.502713 10.708906,-5.743319 0.2356,-0.01 0.47201,-0.01529 0.709,-0.01602 z" />
          </g>
        </g>
        <g
           id="g274"
           transform="matrix(0.80195994,0,0,0.80195994,12.05311,8.5906254)">
          <circle
             style="fill:#00ffe1;fill-opacity:1;stroke:#00ffe1;stroke-width:1.858;stroke-opacity:1;paint-order:stroke fill markers"
             id="circle272"
             cx="81.243256"
             cy="80.962616"
             r="0.60803819" />
          <circle
             style="fill:#00ffe1;fill-opacity:1;stroke:#00ffe1;stroke-width:1.858;stroke-opacity:1;paint-order:stroke fill markers"
             id="circle273"
             cx="85.772018"
             cy="80.962616"
             r="0.60803819" />
          <circle
             style="fill:#00ffe1;fill-opacity:1;stroke:#00ffe1;stroke-width:1.858;stroke-opacity:1;paint-order:stroke fill markers"
             id="circle274"
             cx="90.300774"
             cy="80.962616"
             r="0.60803819" />
        </g>
      </g>
    </g>
  </g>
</svg>
